<mxfile host="app.diagrams.net" modified="2022-04-24T00:33:34.847Z" agent="5.0 (X11; Linux x86_64) AppleWebKit/537.36 (KHTML, like Gecko) Chrome/100.0.4896.127 Safari/537.36" etag="wfv0Iq9g76p68gGHJSCE" version="17.4.6" type="github">
  <diagram id="0WsAM_WMDWSk5i0kJ9NH" name="Page-1">
    <mxGraphModel dx="3709" dy="2215" grid="1" gridSize="10" guides="1" tooltips="1" connect="1" arrows="0" fold="1" page="1" pageScale="1" pageWidth="1654" pageHeight="2336" math="0" shadow="0">
      <root>
        <mxCell id="0" />
        <mxCell id="1" parent="0" />
        <mxCell id="G9HL7FKv6nedQ7dIaKoP-1" value="IDLE&lt;br&gt;&lt;br&gt;stall_out = 1&#39;b0" style="ellipse;whiteSpace=wrap;html=1;" parent="1" vertex="1">
          <mxGeometry x="-810" y="640" width="160" height="120" as="geometry" />
        </mxCell>
        <mxCell id="G9HL7FKv6nedQ7dIaKoP-4" value="~Rd&amp;amp;~Wr" style="text;html=1;align=center;verticalAlign=middle;resizable=0;points=[];autosize=1;strokeColor=none;fillColor=none;" parent="1" vertex="1">
          <mxGeometry x="-840" y="590" width="70" height="20" as="geometry" />
        </mxCell>
        <mxCell id="G9HL7FKv6nedQ7dIaKoP-5" value="" style="curved=1;endArrow=classic;html=1;rounded=0;entryX=0.396;entryY=-0.006;entryDx=0;entryDy=0;entryPerimeter=0;" parent="1" edge="1">
          <mxGeometry width="50" height="50" relative="1" as="geometry">
            <mxPoint x="-806.5640235470282" y="671.7179882264859" as="sourcePoint" />
            <mxPoint x="-756.6400000000003" y="644.28" as="targetPoint" />
            <Array as="points">
              <mxPoint x="-820" y="665" />
              <mxPoint x="-820" y="595" />
            </Array>
          </mxGeometry>
        </mxCell>
        <mxCell id="G9HL7FKv6nedQ7dIaKoP-6" value="COMPARE_RD&lt;br&gt;&lt;br&gt;comp = 1&#39;b1&lt;br&gt;cache_wr = 1&#39;b0&lt;br&gt;flip_victimway = 1&#39;b1" style="ellipse;whiteSpace=wrap;html=1;" parent="1" vertex="1">
          <mxGeometry x="-1015" y="800" width="160" height="120" as="geometry" />
        </mxCell>
        <mxCell id="G9HL7FKv6nedQ7dIaKoP-7" value="COMPARE_WR&lt;br&gt;&lt;br&gt;comp = 1&#39;b1&lt;br&gt;cache_wr = 1&#39;b1&lt;br&gt;flip_victimway = 1&#39;b1" style="ellipse;whiteSpace=wrap;html=1;" parent="1" vertex="1">
          <mxGeometry x="-620" y="803.8399999999999" width="160" height="120" as="geometry" />
        </mxCell>
        <mxCell id="G9HL7FKv6nedQ7dIaKoP-8" value="" style="endArrow=classic;html=1;rounded=0;exitX=0.052;exitY=0.767;exitDx=0;exitDy=0;exitPerimeter=0;" parent="1" source="G9HL7FKv6nedQ7dIaKoP-1" target="G9HL7FKv6nedQ7dIaKoP-6" edge="1">
          <mxGeometry width="50" height="50" relative="1" as="geometry">
            <mxPoint x="-810" y="760" as="sourcePoint" />
            <mxPoint x="-1000.0799999999999" y="860" as="targetPoint" />
          </mxGeometry>
        </mxCell>
        <mxCell id="G9HL7FKv6nedQ7dIaKoP-9" value="Rd &amp;amp;~Wr" style="text;html=1;align=center;verticalAlign=middle;resizable=0;points=[];autosize=1;strokeColor=none;fillColor=none;" parent="1" vertex="1">
          <mxGeometry x="-905" y="751" width="60" height="20" as="geometry" />
        </mxCell>
        <mxCell id="G9HL7FKv6nedQ7dIaKoP-10" value="" style="endArrow=classic;html=1;rounded=0;exitX=0.904;exitY=0.191;exitDx=0;exitDy=0;exitPerimeter=0;entryX=-0.005;entryY=0.526;entryDx=0;entryDy=0;entryPerimeter=0;" parent="1" source="G9HL7FKv6nedQ7dIaKoP-6" target="G9HL7FKv6nedQ7dIaKoP-82" edge="1">
          <mxGeometry width="50" height="50" relative="1" as="geometry">
            <mxPoint x="-830" y="890" as="sourcePoint" />
            <mxPoint x="-780" y="840" as="targetPoint" />
          </mxGeometry>
        </mxCell>
        <mxCell id="G9HL7FKv6nedQ7dIaKoP-14" value="" style="endArrow=classic;html=1;rounded=0;exitX=0.813;exitY=0.917;exitDx=0;exitDy=0;exitPerimeter=0;entryX=0;entryY=0;entryDx=0;entryDy=0;" parent="1" source="G9HL7FKv6nedQ7dIaKoP-1" target="G9HL7FKv6nedQ7dIaKoP-7" edge="1">
          <mxGeometry width="50" height="50" relative="1" as="geometry">
            <mxPoint x="-431.1200000000001" y="739.1200000000001" as="sourcePoint" />
            <mxPoint x="-620.0031655211501" y="919.9074480163647" as="targetPoint" />
          </mxGeometry>
        </mxCell>
        <mxCell id="G9HL7FKv6nedQ7dIaKoP-15" value="~Rd &amp;amp;Wr" style="text;html=1;align=center;verticalAlign=middle;resizable=0;points=[];autosize=1;strokeColor=none;fillColor=none;" parent="1" vertex="1">
          <mxGeometry x="-671" y="740" width="60" height="20" as="geometry" />
        </mxCell>
        <mxCell id="G9HL7FKv6nedQ7dIaKoP-18" value="ALLOC_0&lt;br&gt;&lt;br&gt;&lt;div style=&quot;text-align: left&quot;&gt;&lt;br&gt;&lt;/div&gt;&lt;blockquote style=&quot;margin: 0 0 0 40px ; border: none ; padding: 0px&quot;&gt;&lt;span&gt;&lt;div style=&quot;text-align: left&quot;&gt;&lt;span&gt;mem_rd = 1&#39;b1&lt;/span&gt;&lt;/div&gt;&lt;/span&gt;&lt;span&gt;&lt;div style=&quot;text-align: left&quot;&gt;&lt;span&gt;mem_offset = 3&#39;b000&lt;/span&gt;&lt;/div&gt;&lt;div style=&quot;text-align: left&quot;&gt;&lt;div&gt;&lt;br&gt;&lt;/div&gt;&lt;/div&gt;&lt;/span&gt;&lt;/blockquote&gt;&lt;div style=&quot;text-align: left&quot;&gt;&lt;br&gt;&lt;/div&gt;" style="ellipse;whiteSpace=wrap;html=1;" parent="1" vertex="1">
          <mxGeometry x="-1220" y="960" width="280" height="210" as="geometry" />
        </mxCell>
        <mxCell id="G9HL7FKv6nedQ7dIaKoP-22" value="" style="endArrow=classic;html=1;rounded=0;exitX=0.183;exitY=0.913;exitDx=0;exitDy=0;exitPerimeter=0;" parent="1" source="G9HL7FKv6nedQ7dIaKoP-6" edge="1">
          <mxGeometry width="50" height="50" relative="1" as="geometry">
            <mxPoint x="-1260" y="920" as="sourcePoint" />
            <mxPoint x="-1030" y="970" as="targetPoint" />
          </mxGeometry>
        </mxCell>
        <mxCell id="G9HL7FKv6nedQ7dIaKoP-27" value="" style="endArrow=classic;html=1;rounded=0;exitX=0.183;exitY=0.913;exitDx=0;exitDy=0;exitPerimeter=0;" parent="1" edge="1">
          <mxGeometry width="50" height="50" relative="1" as="geometry">
            <mxPoint x="-585.7199999999998" y="910" as="sourcePoint" />
            <mxPoint x="-970" y="1010" as="targetPoint" />
          </mxGeometry>
        </mxCell>
        <mxCell id="G9HL7FKv6nedQ7dIaKoP-38" value="WB_0&lt;br&gt;&lt;br&gt;mem_wr = 1&#39;b1&lt;br&gt;&lt;div&gt;cache_offset = 3&#39;b000&lt;/div&gt;cache_offset_select = 1&#39;b1&lt;br&gt;tag_select = 1&#39;b1&lt;br&gt;&lt;span style=&quot;color: rgba(0 , 0 , 0 , 0) ; font-family: monospace ; font-size: 0px&quot;&gt;%3CmxGraphModel%3E%3Croot%3E%3CmxCell%20id%3D%220%22%2F%3E%3CmxCell%20id%3D%221%22%20parent%3D%220%22%2F%3E%3CmxCell%20id%3D%222%22%20value%3D%22tag_select%22%20style%3D%22text%3Bhtml%3D1%3Balign%3Dcenter%3BverticalAlign%3Dmiddle%3Bresizable%3D0%3Bpoints%3D%5B%5D%3Bautosize%3D1%3BstrokeColor%3Dnone%3BfillColor%3Dnone%3B%22%20vertex%3D%221%22%20parent%3D%221%22%3E%3CmxGeometry%20x%3D%222430%22%20y%3D%22310%22%20width%3D%2270%22%20height%3D%2220%22%20as%3D%22geometry%22%2F%3E%3C%2FmxCell%3E%3C%2Froot%3E%3C%2FmxGraphModel%3E&lt;/span&gt;mem_offset = 3&#39;b000&lt;div&gt;&lt;/div&gt;" style="ellipse;whiteSpace=wrap;html=1;" parent="1" vertex="1">
          <mxGeometry x="-360" y="895.86" width="200" height="164.14" as="geometry" />
        </mxCell>
        <mxCell id="G9HL7FKv6nedQ7dIaKoP-39" value="mem_stall" style="text;html=1;align=center;verticalAlign=middle;resizable=0;points=[];autosize=1;strokeColor=none;fillColor=none;" parent="1" vertex="1">
          <mxGeometry x="-160" y="864.14" width="70" height="20" as="geometry" />
        </mxCell>
        <mxCell id="G9HL7FKv6nedQ7dIaKoP-41" value="" style="curved=1;endArrow=classic;html=1;rounded=0;exitX=0.945;exitY=0.297;exitDx=0;exitDy=0;exitPerimeter=0;entryX=0.722;entryY=0.065;entryDx=0;entryDy=0;entryPerimeter=0;" parent="1" source="G9HL7FKv6nedQ7dIaKoP-38" target="G9HL7FKv6nedQ7dIaKoP-38" edge="1">
          <mxGeometry width="50" height="50" relative="1" as="geometry">
            <mxPoint x="-170" y="914.1399999999999" as="sourcePoint" />
            <mxPoint x="-120" y="864.14" as="targetPoint" />
            <Array as="points">
              <mxPoint x="-120" y="914.1399999999999" />
              <mxPoint x="-170" y="864.14" />
            </Array>
          </mxGeometry>
        </mxCell>
        <mxCell id="G9HL7FKv6nedQ7dIaKoP-42" value="WB_1&lt;br&gt;&lt;br&gt;mem_wr = 1&#39;b1&lt;br&gt;&lt;div&gt;cache_offset = 3&#39;b010&lt;/div&gt;cache_offset_select = 1&#39;b1&lt;br&gt;tag_select = 1&#39;b1&lt;br&gt;&lt;div&gt;mem_offset = 3&#39;b010&lt;div&gt;&lt;br&gt;&lt;/div&gt;&lt;/div&gt;" style="ellipse;whiteSpace=wrap;html=1;" parent="1" vertex="1">
          <mxGeometry x="-160" y="1050" width="200" height="160" as="geometry" />
        </mxCell>
        <mxCell id="G9HL7FKv6nedQ7dIaKoP-43" value="mem_stall" style="text;html=1;align=center;verticalAlign=middle;resizable=0;points=[];autosize=1;strokeColor=none;fillColor=none;" parent="1" vertex="1">
          <mxGeometry x="30" y="1018.28" width="70" height="20" as="geometry" />
        </mxCell>
        <mxCell id="G9HL7FKv6nedQ7dIaKoP-44" value="" style="curved=1;endArrow=classic;html=1;rounded=0;exitX=0.945;exitY=0.297;exitDx=0;exitDy=0;exitPerimeter=0;entryX=0.722;entryY=0.065;entryDx=0;entryDy=0;entryPerimeter=0;" parent="1" source="G9HL7FKv6nedQ7dIaKoP-42" target="G9HL7FKv6nedQ7dIaKoP-42" edge="1">
          <mxGeometry width="50" height="50" relative="1" as="geometry">
            <mxPoint x="60" y="1068.28" as="sourcePoint" />
            <mxPoint x="110" y="1018.28" as="targetPoint" />
            <Array as="points">
              <mxPoint x="80" y="1070" />
              <mxPoint x="50" y="1030" />
            </Array>
          </mxGeometry>
        </mxCell>
        <mxCell id="G9HL7FKv6nedQ7dIaKoP-45" value="WB_2&lt;br&gt;&lt;br&gt;mem_wr = 1&#39;b1&lt;br&gt;&lt;div&gt;cache_offset = 3&#39;b100&lt;/div&gt;cache_offset_select = 1&#39;b1&lt;br&gt;tag_select = 1&#39;b1&lt;br&gt;mem_offset = 3&#39;b100&lt;div&gt;&lt;/div&gt;" style="ellipse;whiteSpace=wrap;html=1;" parent="1" vertex="1">
          <mxGeometry x="-320" y="1240" width="190" height="180" as="geometry" />
        </mxCell>
        <mxCell id="G9HL7FKv6nedQ7dIaKoP-46" value="mem_stall" style="text;html=1;align=center;verticalAlign=middle;resizable=0;points=[];autosize=1;strokeColor=none;fillColor=none;" parent="1" vertex="1">
          <mxGeometry x="-100" y="1248.28" width="70" height="20" as="geometry" />
        </mxCell>
        <mxCell id="G9HL7FKv6nedQ7dIaKoP-47" value="" style="curved=1;endArrow=classic;html=1;rounded=0;exitX=0.945;exitY=0.297;exitDx=0;exitDy=0;exitPerimeter=0;entryX=0.722;entryY=0.065;entryDx=0;entryDy=0;entryPerimeter=0;" parent="1" source="G9HL7FKv6nedQ7dIaKoP-45" target="G9HL7FKv6nedQ7dIaKoP-45" edge="1">
          <mxGeometry width="50" height="50" relative="1" as="geometry">
            <mxPoint x="-110" y="1278.28" as="sourcePoint" />
            <mxPoint x="-60" y="1228.28" as="targetPoint" />
            <Array as="points">
              <mxPoint x="-90" y="1280" />
              <mxPoint x="-110" y="1228.28" />
            </Array>
          </mxGeometry>
        </mxCell>
        <mxCell id="G9HL7FKv6nedQ7dIaKoP-48" value="WB_3&lt;br&gt;&lt;br&gt;mem_wr = 1&#39;b1&lt;br&gt;&lt;div&gt;cache_offset = 3&#39;b110&lt;/div&gt;cache_offset_select = 1&#39;b1&lt;br&gt;tag_select = 1&#39;b1&lt;br&gt;&lt;div&gt;mem_offset = 3&#39;b110&lt;div&gt;&lt;br&gt;&lt;/div&gt;&lt;/div&gt;" style="ellipse;whiteSpace=wrap;html=1;" parent="1" vertex="1">
          <mxGeometry x="-690" y="1260" width="210" height="170" as="geometry" />
        </mxCell>
        <mxCell id="G9HL7FKv6nedQ7dIaKoP-49" value="mem_stall" style="text;html=1;align=center;verticalAlign=middle;resizable=0;points=[];autosize=1;strokeColor=none;fillColor=none;" parent="1" vertex="1">
          <mxGeometry x="-460" y="1253.28" width="70" height="20" as="geometry" />
        </mxCell>
        <mxCell id="G9HL7FKv6nedQ7dIaKoP-50" value="" style="curved=1;endArrow=classic;html=1;rounded=0;exitX=0.945;exitY=0.297;exitDx=0;exitDy=0;exitPerimeter=0;entryX=0.722;entryY=0.065;entryDx=0;entryDy=0;entryPerimeter=0;" parent="1" source="G9HL7FKv6nedQ7dIaKoP-48" target="G9HL7FKv6nedQ7dIaKoP-48" edge="1">
          <mxGeometry width="50" height="50" relative="1" as="geometry">
            <mxPoint x="-460" y="1290" as="sourcePoint" />
            <mxPoint x="-410" y="1240" as="targetPoint" />
            <Array as="points">
              <mxPoint x="-450" y="1290" />
              <mxPoint x="-470" y="1250" />
            </Array>
          </mxGeometry>
        </mxCell>
        <mxCell id="G9HL7FKv6nedQ7dIaKoP-51" value="" style="endArrow=classic;html=1;rounded=0;entryX=0.019;entryY=0.376;entryDx=0;entryDy=0;entryPerimeter=0;" parent="1" source="G9HL7FKv6nedQ7dIaKoP-7" target="G9HL7FKv6nedQ7dIaKoP-38" edge="1">
          <mxGeometry width="50" height="50" relative="1" as="geometry">
            <mxPoint x="-530" y="1020" as="sourcePoint" />
            <mxPoint x="-480" y="970" as="targetPoint" />
          </mxGeometry>
        </mxCell>
        <mxCell id="G9HL7FKv6nedQ7dIaKoP-52" value="" style="endArrow=classic;html=1;rounded=0;exitX=1;exitY=1;exitDx=0;exitDy=0;" parent="1" source="G9HL7FKv6nedQ7dIaKoP-38" target="G9HL7FKv6nedQ7dIaKoP-42" edge="1">
          <mxGeometry width="50" height="50" relative="1" as="geometry">
            <mxPoint x="-290" y="1080" as="sourcePoint" />
            <mxPoint x="-240" y="1030" as="targetPoint" />
          </mxGeometry>
        </mxCell>
        <mxCell id="G9HL7FKv6nedQ7dIaKoP-53" value="" style="endArrow=classic;html=1;rounded=0;exitX=0.04;exitY=0.769;exitDx=0;exitDy=0;exitPerimeter=0;entryX=0.5;entryY=0;entryDx=0;entryDy=0;" parent="1" source="G9HL7FKv6nedQ7dIaKoP-42" target="G9HL7FKv6nedQ7dIaKoP-45" edge="1">
          <mxGeometry width="50" height="50" relative="1" as="geometry">
            <mxPoint x="-280" y="1120" as="sourcePoint" />
            <mxPoint x="-230" y="1070" as="targetPoint" />
          </mxGeometry>
        </mxCell>
        <mxCell id="G9HL7FKv6nedQ7dIaKoP-54" value="" style="endArrow=classic;html=1;rounded=0;exitX=-0.006;exitY=0.608;exitDx=0;exitDy=0;exitPerimeter=0;entryX=1.006;entryY=0.633;entryDx=0;entryDy=0;entryPerimeter=0;" parent="1" source="G9HL7FKv6nedQ7dIaKoP-45" target="G9HL7FKv6nedQ7dIaKoP-48" edge="1">
          <mxGeometry width="50" height="50" relative="1" as="geometry">
            <mxPoint x="-390" y="1530" as="sourcePoint" />
            <mxPoint x="-340" y="1480" as="targetPoint" />
          </mxGeometry>
        </mxCell>
        <mxCell id="G9HL7FKv6nedQ7dIaKoP-59" value="" style="endArrow=classic;html=1;rounded=0;exitX=0.975;exitY=0.717;exitDx=0;exitDy=0;exitPerimeter=0;entryX=0.019;entryY=0.643;entryDx=0;entryDy=0;entryPerimeter=0;" parent="1" source="G9HL7FKv6nedQ7dIaKoP-6" target="G9HL7FKv6nedQ7dIaKoP-38" edge="1">
          <mxGeometry width="50" height="50" relative="1" as="geometry">
            <mxPoint x="-580" y="1090" as="sourcePoint" />
            <mxPoint x="-530" y="1040" as="targetPoint" />
          </mxGeometry>
        </mxCell>
        <mxCell id="G9HL7FKv6nedQ7dIaKoP-62" value="" style="endArrow=classic;html=1;rounded=0;exitX=0;exitY=0;exitDx=0;exitDy=0;" parent="1" source="G9HL7FKv6nedQ7dIaKoP-48" target="G9HL7FKv6nedQ7dIaKoP-18" edge="1">
          <mxGeometry width="50" height="50" relative="1" as="geometry">
            <mxPoint x="-560" y="1150" as="sourcePoint" />
            <mxPoint x="-940" y="1130" as="targetPoint" />
          </mxGeometry>
        </mxCell>
        <mxCell id="G9HL7FKv6nedQ7dIaKoP-67" value="ALLOC_1&lt;br&gt;&lt;br&gt;&lt;div style=&quot;text-align: left&quot;&gt;&lt;span style=&quot;text-align: center&quot;&gt;&lt;div style=&quot;text-align: left&quot;&gt;mem_rd = 1&#39;b1&lt;/div&gt;&lt;/span&gt;&lt;span style=&quot;text-align: center&quot;&gt;&lt;div style=&quot;text-align: left&quot;&gt;mem_offset = 3&#39;b010&lt;/div&gt;&lt;/span&gt;&lt;/div&gt;" style="ellipse;whiteSpace=wrap;html=1;" parent="1" vertex="1">
          <mxGeometry x="-1269" y="1351" width="260" height="178.84" as="geometry" />
        </mxCell>
        <mxCell id="G9HL7FKv6nedQ7dIaKoP-70" value="ALLOC_2&lt;br&gt;&lt;span&gt;&lt;br&gt;valid_in = 1&#39;b1&lt;br&gt;mem_rd = 1&#39;b1&lt;/span&gt;&lt;span&gt;&lt;/span&gt;&lt;br&gt;&lt;div&gt;&lt;span&gt;&lt;div&gt;&lt;span&gt;&lt;span&gt; &lt;span&gt; &lt;/span&gt;&lt;/span&gt;mem_offset = 3&#39;b100&lt;/span&gt;&lt;/div&gt;&lt;/span&gt;&lt;span&gt;&lt;div&gt;&lt;span&gt;&lt;span&gt; &lt;span&gt; &lt;/span&gt;&lt;/span&gt;cache_offset = 3&#39;b000&lt;/span&gt;&lt;/div&gt;&lt;div&gt;&lt;span&gt; &lt;/span&gt;&lt;span&gt; &lt;/span&gt;&lt;span style=&quot;font-family: &amp;#34;helvetica&amp;#34;&quot;&gt;cache_offset_select = 1&#39;b1&lt;/span&gt;&lt;br&gt;&lt;/div&gt;&lt;/span&gt;&lt;span&gt;&lt;div&gt;&lt;span&gt;&lt;span&gt; &lt;span&gt; &lt;/span&gt;&lt;/span&gt;cache_write = 1&#39;b1&lt;/span&gt;&lt;/div&gt;&lt;div&gt;&lt;/div&gt;&lt;div&gt;&lt;span&gt;&lt;span&gt; &lt;span&gt; &lt;/span&gt;&lt;/span&gt;cache_data_in_select = 1&#39;b1&lt;/span&gt;&lt;/div&gt;&lt;/span&gt;&lt;/div&gt;" style="ellipse;whiteSpace=wrap;html=1;" parent="1" vertex="1">
          <mxGeometry x="-960" y="1555" width="250" height="195" as="geometry" />
        </mxCell>
        <mxCell id="G9HL7FKv6nedQ7dIaKoP-73" value="ALLOC_3&lt;br&gt;&lt;br&gt;&lt;div style=&quot;text-align: left&quot;&gt;&lt;span&gt;&lt;span&gt; &lt;/span&gt;&lt;/span&gt;&lt;/div&gt;valid_in = 1&#39;b1&lt;br&gt;mem_rd = 1&#39;b1&lt;br&gt;&lt;div&gt;&lt;div&gt;mem_offset = 3&#39;b110&lt;/div&gt;&lt;div&gt;cache_offset = 3&#39;b010&lt;/div&gt;&lt;div&gt;&lt;span style=&quot;font-family: &amp;#34;helvetica&amp;#34;&quot;&gt;cache_offset_select = 1&#39;b1&lt;/span&gt;&lt;br&gt;&lt;/div&gt;&lt;div&gt;cache_write = 1&#39;b1&lt;/div&gt;&lt;div&gt;&lt;/div&gt;&lt;div&gt;cache_data_in_select = 1&#39;b1&lt;/div&gt;&lt;/div&gt;" style="ellipse;whiteSpace=wrap;html=1;" parent="1" vertex="1">
          <mxGeometry x="-530" y="1544" width="260" height="208.84" as="geometry" />
        </mxCell>
        <mxCell id="G9HL7FKv6nedQ7dIaKoP-76" value="ALLOC_4&lt;br&gt;&lt;span&gt;&lt;br&gt;&lt;div&gt;&lt;span&gt;valid_in = 1&#39;b1&lt;/span&gt;&lt;/div&gt;&lt;div&gt;cache_write = 1&#39;b1&lt;span&gt;&lt;br&gt;&lt;/span&gt;&lt;/div&gt;&lt;div&gt;&lt;span&gt;cache_offset = 3&#39;b100&lt;/span&gt;&lt;/div&gt;&lt;div&gt;&lt;span style=&quot;font-family: &amp;#34;helvetica&amp;#34;&quot;&gt;cache_offset_select = 1&#39;b1&lt;/span&gt;&lt;/div&gt;&lt;div&gt;&lt;span&gt;cache_data_in_select = 1&#39;b1&lt;/span&gt;&lt;/div&gt;&lt;/span&gt;" style="ellipse;whiteSpace=wrap;html=1;align=center;" parent="1" vertex="1">
          <mxGeometry x="-115" y="1450" width="280" height="217.12" as="geometry" />
        </mxCell>
        <mxCell id="G9HL7FKv6nedQ7dIaKoP-79" value="ALLOC_5&lt;br&gt;&lt;br&gt;&lt;span&gt;valid_in = 1&#39;b1&lt;br&gt;&lt;/span&gt;&lt;span&gt;cache_write = 1&#39;b1&lt;br&gt;&lt;/span&gt;&lt;span&gt;cache_offset = 3&#39;b110&lt;br&gt;&lt;/span&gt;&lt;span style=&quot;font-family: &amp;#34;helvetica&amp;#34;&quot;&gt;cache_offset_select = 1&#39;b1&lt;br&gt;&lt;/span&gt;&lt;span&gt;cache_data_in_select = 1&#39;b1&lt;/span&gt;&lt;span style=&quot;font-family: &amp;#34;helvetica&amp;#34;&quot;&gt;&lt;br&gt;&lt;/span&gt;" style="ellipse;whiteSpace=wrap;html=1;" parent="1" vertex="1">
          <mxGeometry x="160" y="1140" width="270" height="220" as="geometry" />
        </mxCell>
        <mxCell id="G9HL7FKv6nedQ7dIaKoP-82" value="HIT_DONE&lt;br&gt;&lt;br&gt;done = 1&#39;b1&lt;br&gt;cache_hit = 1&#39;b1" style="ellipse;whiteSpace=wrap;html=1;" parent="1" vertex="1">
          <mxGeometry x="-376" y="654.75" width="195" height="172.5" as="geometry" />
        </mxCell>
        <mxCell id="G9HL7FKv6nedQ7dIaKoP-83" value="" style="endArrow=classic;html=1;rounded=0;exitX=0.5;exitY=1;exitDx=0;exitDy=0;entryX=0.5;entryY=0;entryDx=0;entryDy=0;" parent="1" source="G9HL7FKv6nedQ7dIaKoP-18" target="G9HL7FKv6nedQ7dIaKoP-67" edge="1">
          <mxGeometry width="50" height="50" relative="1" as="geometry">
            <mxPoint x="-980" y="1370" as="sourcePoint" />
            <mxPoint x="-930" y="1320" as="targetPoint" />
          </mxGeometry>
        </mxCell>
        <mxCell id="G9HL7FKv6nedQ7dIaKoP-84" value="" style="endArrow=classic;html=1;rounded=0;entryX=-0.005;entryY=0.399;entryDx=0;entryDy=0;entryPerimeter=0;" parent="1" source="G9HL7FKv6nedQ7dIaKoP-67" target="G9HL7FKv6nedQ7dIaKoP-70" edge="1">
          <mxGeometry width="50" height="50" relative="1" as="geometry">
            <mxPoint x="-1020" y="1730" as="sourcePoint" />
            <mxPoint x="-970" y="1680" as="targetPoint" />
          </mxGeometry>
        </mxCell>
        <mxCell id="G9HL7FKv6nedQ7dIaKoP-85" value="" style="endArrow=classic;html=1;rounded=0;exitX=1;exitY=0.5;exitDx=0;exitDy=0;entryX=0.008;entryY=0.571;entryDx=0;entryDy=0;entryPerimeter=0;" parent="1" source="G9HL7FKv6nedQ7dIaKoP-70" target="G9HL7FKv6nedQ7dIaKoP-73" edge="1">
          <mxGeometry width="50" height="50" relative="1" as="geometry">
            <mxPoint x="-480" y="1580" as="sourcePoint" />
            <mxPoint x="-430" y="1530" as="targetPoint" />
          </mxGeometry>
        </mxCell>
        <mxCell id="G9HL7FKv6nedQ7dIaKoP-86" value="" style="endArrow=classic;html=1;rounded=0;exitX=0.979;exitY=0.337;exitDx=0;exitDy=0;exitPerimeter=0;" parent="1" source="G9HL7FKv6nedQ7dIaKoP-73" target="G9HL7FKv6nedQ7dIaKoP-76" edge="1">
          <mxGeometry width="50" height="50" relative="1" as="geometry">
            <mxPoint x="-20" y="1550" as="sourcePoint" />
            <mxPoint x="30" y="1500" as="targetPoint" />
          </mxGeometry>
        </mxCell>
        <mxCell id="G9HL7FKv6nedQ7dIaKoP-87" value="" style="endArrow=classic;html=1;rounded=0;exitX=0.704;exitY=0.026;exitDx=0;exitDy=0;exitPerimeter=0;" parent="1" source="G9HL7FKv6nedQ7dIaKoP-76" target="G9HL7FKv6nedQ7dIaKoP-79" edge="1">
          <mxGeometry width="50" height="50" relative="1" as="geometry">
            <mxPoint x="340" y="1280" as="sourcePoint" />
            <mxPoint x="390" y="1230" as="targetPoint" />
          </mxGeometry>
        </mxCell>
        <mxCell id="G9HL7FKv6nedQ7dIaKoP-89" value="" style="endArrow=classic;html=1;rounded=0;exitX=0.037;exitY=0.269;exitDx=0;exitDy=0;entryX=1;entryY=0.5;entryDx=0;entryDy=0;exitPerimeter=0;" parent="1" source="G9HL7FKv6nedQ7dIaKoP-82" target="G9HL7FKv6nedQ7dIaKoP-1" edge="1">
          <mxGeometry width="50" height="50" relative="1" as="geometry">
            <mxPoint x="-460" y="630" as="sourcePoint" />
            <mxPoint x="-410" y="580" as="targetPoint" />
          </mxGeometry>
        </mxCell>
        <mxCell id="MkebhDBpNGItt_J_HD5r-7" value="ALLOC_6&lt;br&gt;&lt;br&gt;&lt;span&gt;valid_in = 1&#39;b1&lt;br&gt;comp = 1&#39;b1&lt;/span&gt;&lt;span&gt;&lt;br&gt;&lt;/span&gt;&lt;span&gt;cache_write = 1&#39;b1&lt;br&gt;&lt;/span&gt;&lt;span&gt;cache_data_in_select = 1&#39;b0&lt;br&gt;&lt;/span&gt;&lt;span style=&quot;font-family: &amp;#34;helvetica&amp;#34;&quot;&gt;cache_offset_select = 1&#39;b0&lt;/span&gt;&lt;span&gt;&lt;br&gt;&lt;/span&gt;" style="ellipse;whiteSpace=wrap;html=1;" parent="1" vertex="1">
          <mxGeometry x="60" y="780" width="230" height="180" as="geometry" />
        </mxCell>
        <mxCell id="MkebhDBpNGItt_J_HD5r-8" value="" style="endArrow=classic;html=1;rounded=0;exitX=0.63;exitY=0;exitDx=0;exitDy=0;exitPerimeter=0;" parent="1" source="MkebhDBpNGItt_J_HD5r-7" target="ubBGQjgHWbrzZHi7zzIe-1" edge="1">
          <mxGeometry width="50" height="50" relative="1" as="geometry">
            <mxPoint x="-170" y="920" as="sourcePoint" />
            <mxPoint x="-120" y="870" as="targetPoint" />
          </mxGeometry>
        </mxCell>
        <mxCell id="MkebhDBpNGItt_J_HD5r-10" value="Wr&amp;amp;~Rd" style="text;html=1;align=center;verticalAlign=middle;resizable=0;points=[];autosize=1;strokeColor=none;fillColor=none;" parent="1" vertex="1">
          <mxGeometry x="250" y="998.28" width="60" height="20" as="geometry" />
        </mxCell>
        <mxCell id="MkebhDBpNGItt_J_HD5r-11" value="~Wr&amp;amp;Rd" style="text;html=1;align=center;verticalAlign=middle;resizable=0;points=[];autosize=1;strokeColor=none;fillColor=none;" parent="1" vertex="1">
          <mxGeometry x="290" y="864.14" width="60" height="20" as="geometry" />
        </mxCell>
        <mxCell id="MkebhDBpNGItt_J_HD5r-89" value="(~(hit &amp;amp; valid) &amp;amp; ~dirty) &lt;br&gt;" style="text;html=1;align=center;verticalAlign=middle;resizable=0;points=[];autosize=1;strokeColor=none;fillColor=none;" parent="1" vertex="1">
          <mxGeometry x="-1180" y="935" width="130" height="20" as="geometry" />
        </mxCell>
        <mxCell id="ubBGQjgHWbrzZHi7zzIe-1" value="MISS_DONE&lt;br&gt;&lt;br&gt;done = 1&#39;b1" style="ellipse;whiteSpace=wrap;html=1;" parent="1" vertex="1">
          <mxGeometry x="190" y="520" width="260" height="190" as="geometry" />
        </mxCell>
        <mxCell id="mIV1HLxVUp-rzsPTlxXM-1" value="ERROR&lt;br&gt;&lt;br&gt;err = 1&#39;b1" style="ellipse;whiteSpace=wrap;html=1;" parent="1" vertex="1">
          <mxGeometry x="-845" y="330" width="120" height="130" as="geometry" />
        </mxCell>
        <mxCell id="mIV1HLxVUp-rzsPTlxXM-4" value="" style="endArrow=classic;html=1;rounded=0;exitX=0.417;exitY=-0.004;exitDx=0;exitDy=0;exitPerimeter=0;" parent="1" source="G9HL7FKv6nedQ7dIaKoP-1" target="mIV1HLxVUp-rzsPTlxXM-1" edge="1">
          <mxGeometry width="50" height="50" relative="1" as="geometry">
            <mxPoint x="-790" y="540" as="sourcePoint" />
            <mxPoint x="-740" y="490" as="targetPoint" />
          </mxGeometry>
        </mxCell>
        <mxCell id="mIV1HLxVUp-rzsPTlxXM-5" value="" style="endArrow=classic;html=1;rounded=0;exitX=0.673;exitY=0.967;exitDx=0;exitDy=0;exitPerimeter=0;" parent="1" source="mIV1HLxVUp-rzsPTlxXM-1" edge="1">
          <mxGeometry width="50" height="50" relative="1" as="geometry">
            <mxPoint x="-760" y="510" as="sourcePoint" />
            <mxPoint x="-730" y="640" as="targetPoint" />
          </mxGeometry>
        </mxCell>
        <mxCell id="mIV1HLxVUp-rzsPTlxXM-6" value="hit &amp;amp; valid" style="text;html=1;align=center;verticalAlign=middle;resizable=0;points=[];autosize=1;strokeColor=none;fillColor=none;" parent="1" vertex="1">
          <mxGeometry x="-821" y="786" width="70" height="20" as="geometry" />
        </mxCell>
        <mxCell id="mIV1HLxVUp-rzsPTlxXM-7" value="" style="endArrow=classic;html=1;rounded=0;entryX=0.081;entryY=0.799;entryDx=0;entryDy=0;entryPerimeter=0;" parent="1" source="G9HL7FKv6nedQ7dIaKoP-7" target="G9HL7FKv6nedQ7dIaKoP-82" edge="1">
          <mxGeometry width="50" height="50" relative="1" as="geometry">
            <mxPoint x="-380" y="820" as="sourcePoint" />
            <mxPoint x="-330" y="770" as="targetPoint" />
          </mxGeometry>
        </mxCell>
        <mxCell id="mIV1HLxVUp-rzsPTlxXM-8" value="hit &amp;amp; valid" style="text;html=1;align=center;verticalAlign=middle;resizable=0;points=[];autosize=1;strokeColor=none;fillColor=none;" parent="1" vertex="1">
          <mxGeometry x="-480" y="800" width="70" height="20" as="geometry" />
        </mxCell>
        <mxCell id="mIV1HLxVUp-rzsPTlxXM-9" value="(~(hit &amp;amp; valid) &amp;amp; ~dirty) &lt;br&gt;" style="text;html=1;align=center;verticalAlign=middle;resizable=0;points=[];autosize=1;strokeColor=none;fillColor=none;" parent="1" vertex="1">
          <mxGeometry x="-957" y="955" width="130" height="20" as="geometry" />
        </mxCell>
        <mxCell id="mIV1HLxVUp-rzsPTlxXM-10" value="(~(hit &amp;amp; valid) &amp;amp; dirty) " style="text;html=1;align=center;verticalAlign=middle;resizable=0;points=[];autosize=1;strokeColor=none;fillColor=none;" parent="1" vertex="1">
          <mxGeometry x="-551" y="990" width="130" height="20" as="geometry" />
        </mxCell>
        <mxCell id="mIV1HLxVUp-rzsPTlxXM-11" value="(~(hit &amp;amp; valid) &amp;amp; dirty) " style="text;html=1;align=center;verticalAlign=middle;resizable=0;points=[];autosize=1;strokeColor=none;fillColor=none;" parent="1" vertex="1">
          <mxGeometry x="-446" y="880" width="130" height="20" as="geometry" />
        </mxCell>
        <mxCell id="mIV1HLxVUp-rzsPTlxXM-12" value="" style="endArrow=classic;html=1;rounded=0;fontColor=#000000;entryX=0.068;entryY=0.798;entryDx=0;entryDy=0;entryPerimeter=0;exitX=0.343;exitY=0.032;exitDx=0;exitDy=0;exitPerimeter=0;" parent="1" source="G9HL7FKv6nedQ7dIaKoP-6" target="mIV1HLxVUp-rzsPTlxXM-1" edge="1">
          <mxGeometry width="50" height="50" relative="1" as="geometry">
            <mxPoint x="-990" y="670" as="sourcePoint" />
            <mxPoint x="-940" y="620" as="targetPoint" />
          </mxGeometry>
        </mxCell>
        <mxCell id="mIV1HLxVUp-rzsPTlxXM-13" value="" style="endArrow=classic;html=1;rounded=0;fontColor=#000000;entryX=0.971;entryY=0.653;entryDx=0;entryDy=0;entryPerimeter=0;" parent="1" source="G9HL7FKv6nedQ7dIaKoP-7" target="mIV1HLxVUp-rzsPTlxXM-1" edge="1">
          <mxGeometry width="50" height="50" relative="1" as="geometry">
            <mxPoint x="-550" y="800" as="sourcePoint" />
            <mxPoint x="-600" y="500" as="targetPoint" />
          </mxGeometry>
        </mxCell>
        <mxCell id="mIV1HLxVUp-rzsPTlxXM-16" value="mem_stall" style="text;html=1;align=center;verticalAlign=middle;resizable=0;points=[];autosize=1;strokeColor=none;fillColor=none;" parent="1" vertex="1">
          <mxGeometry x="-1315.0000000000002" y="970" width="70" height="20" as="geometry" />
        </mxCell>
        <mxCell id="mIV1HLxVUp-rzsPTlxXM-17" value="" style="curved=1;endArrow=classic;html=1;rounded=0;entryX=0.396;entryY=-0.006;entryDx=0;entryDy=0;entryPerimeter=0;exitX=0;exitY=0.381;exitDx=0;exitDy=0;exitPerimeter=0;" parent="1" source="G9HL7FKv6nedQ7dIaKoP-18" edge="1">
          <mxGeometry width="50" height="50" relative="1" as="geometry">
            <mxPoint x="-1237.6599999999999" y="1018.2772800000002" as="sourcePoint" />
            <mxPoint x="-1180.0000000000005" y="992.2199999999998" as="targetPoint" />
            <Array as="points">
              <mxPoint x="-1243.3600000000001" y="1012.94" />
              <mxPoint x="-1243.3600000000001" y="942.94" />
            </Array>
          </mxGeometry>
        </mxCell>
        <mxCell id="mIV1HLxVUp-rzsPTlxXM-18" value="mem_stall" style="text;html=1;align=center;verticalAlign=middle;resizable=0;points=[];autosize=1;strokeColor=none;fillColor=none;" parent="1" vertex="1">
          <mxGeometry x="-1355.0000000000002" y="1347.06" width="70" height="20" as="geometry" />
        </mxCell>
        <mxCell id="mIV1HLxVUp-rzsPTlxXM-19" value="" style="curved=1;endArrow=classic;html=1;rounded=0;entryX=0.396;entryY=-0.006;entryDx=0;entryDy=0;entryPerimeter=0;exitX=0.012;exitY=0.37;exitDx=0;exitDy=0;exitPerimeter=0;" parent="1" source="G9HL7FKv6nedQ7dIaKoP-67" edge="1">
          <mxGeometry width="50" height="50" relative="1" as="geometry">
            <mxPoint x="-1260" y="1417" as="sourcePoint" />
            <mxPoint x="-1220.0000000000005" y="1369.2799999999997" as="targetPoint" />
            <Array as="points">
              <mxPoint x="-1283.3600000000001" y="1390" />
              <mxPoint x="-1283.3600000000001" y="1320" />
            </Array>
          </mxGeometry>
        </mxCell>
        <mxCell id="mIV1HLxVUp-rzsPTlxXM-20" value="mem_stall" style="text;html=1;align=center;verticalAlign=middle;resizable=0;points=[];autosize=1;strokeColor=none;fillColor=none;" parent="1" vertex="1">
          <mxGeometry x="-930.0000000000002" y="1509.84" width="70" height="20" as="geometry" />
        </mxCell>
        <mxCell id="mIV1HLxVUp-rzsPTlxXM-21" value="" style="curved=1;endArrow=classic;html=1;rounded=0;entryX=0.304;entryY=0.051;entryDx=0;entryDy=0;entryPerimeter=0;exitX=0;exitY=0.381;exitDx=0;exitDy=0;exitPerimeter=0;" parent="1" target="G9HL7FKv6nedQ7dIaKoP-70" edge="1">
          <mxGeometry width="50" height="50" relative="1" as="geometry">
            <mxPoint x="-936" y="1597.0700000000002" as="sourcePoint" />
            <mxPoint x="-896.0000000000005" y="1549.2799999999997" as="targetPoint" />
            <Array as="points">
              <mxPoint x="-959.3600000000001" y="1570" />
              <mxPoint x="-959.3600000000001" y="1500" />
            </Array>
          </mxGeometry>
        </mxCell>
        <mxCell id="mIV1HLxVUp-rzsPTlxXM-22" value="mem_stall" style="text;html=1;align=center;verticalAlign=middle;resizable=0;points=[];autosize=1;strokeColor=none;fillColor=none;" parent="1" vertex="1">
          <mxGeometry x="-621.0000000000002" y="1547.06" width="70" height="20" as="geometry" />
        </mxCell>
        <mxCell id="mIV1HLxVUp-rzsPTlxXM-23" value="" style="curved=1;endArrow=classic;html=1;rounded=0;entryX=0.396;entryY=-0.006;entryDx=0;entryDy=0;entryPerimeter=0;exitX=0;exitY=0.381;exitDx=0;exitDy=0;exitPerimeter=0;" parent="1" edge="1">
          <mxGeometry width="50" height="50" relative="1" as="geometry">
            <mxPoint x="-526" y="1617.0700000000002" as="sourcePoint" />
            <mxPoint x="-486.00000000000045" y="1569.2799999999997" as="targetPoint" />
            <Array as="points">
              <mxPoint x="-549.3600000000001" y="1590" />
              <mxPoint x="-549.3600000000001" y="1520" />
            </Array>
          </mxGeometry>
        </mxCell>
        <mxCell id="mIV1HLxVUp-rzsPTlxXM-24" value="&lt;span style=&quot;color: rgb(0 , 0 , 0) ; font-family: &amp;#34;helvetica&amp;#34; ; font-size: 12px ; font-style: normal ; font-weight: 400 ; letter-spacing: normal ; text-align: center ; text-indent: 0px ; text-transform: none ; word-spacing: 0px ; background-color: rgb(248 , 249 , 250) ; display: inline ; float: none&quot;&gt;~mem_stall&lt;/span&gt;" style="text;whiteSpace=wrap;html=1;fontColor=#000000;" parent="1" vertex="1">
          <mxGeometry x="-1089" y="1248.28" width="80" height="30" as="geometry" />
        </mxCell>
        <mxCell id="mIV1HLxVUp-rzsPTlxXM-25" value="&lt;span style=&quot;color: rgb(0 , 0 , 0) ; font-family: &amp;#34;helvetica&amp;#34; ; font-size: 12px ; font-style: normal ; font-weight: 400 ; letter-spacing: normal ; text-align: center ; text-indent: 0px ; text-transform: none ; word-spacing: 0px ; background-color: rgb(248 , 249 , 250) ; display: inline ; float: none&quot;&gt;~mem_stall&lt;/span&gt;" style="text;whiteSpace=wrap;html=1;fontColor=#000000;" parent="1" vertex="1">
          <mxGeometry x="-1095" y="1567.06" width="80" height="30" as="geometry" />
        </mxCell>
        <mxCell id="mIV1HLxVUp-rzsPTlxXM-26" value="&lt;span style=&quot;color: rgb(0 , 0 , 0) ; font-family: &amp;#34;helvetica&amp;#34; ; font-size: 12px ; font-style: normal ; font-weight: 400 ; letter-spacing: normal ; text-align: center ; text-indent: 0px ; text-transform: none ; word-spacing: 0px ; background-color: rgb(248 , 249 , 250) ; display: inline ; float: none&quot;&gt;~mem_stall&lt;/span&gt;" style="text;whiteSpace=wrap;html=1;fontColor=#000000;" parent="1" vertex="1">
          <mxGeometry x="-670" y="1660" width="80" height="30" as="geometry" />
        </mxCell>
        <mxCell id="mIV1HLxVUp-rzsPTlxXM-27" value="&lt;span style=&quot;color: rgb(0 , 0 , 0) ; font-family: &amp;#34;helvetica&amp;#34; ; font-size: 12px ; font-style: normal ; font-weight: 400 ; letter-spacing: normal ; text-align: center ; text-indent: 0px ; text-transform: none ; word-spacing: 0px ; background-color: rgb(248 , 249 , 250) ; display: inline ; float: none&quot;&gt;~mem_stall&lt;/span&gt;" style="text;whiteSpace=wrap;html=1;fontColor=#000000;" parent="1" vertex="1">
          <mxGeometry x="-240" y="1610" width="80" height="30" as="geometry" />
        </mxCell>
        <mxCell id="mIV1HLxVUp-rzsPTlxXM-28" value="" style="endArrow=classic;html=1;rounded=0;fontColor=#000000;exitX=0.5;exitY=0;exitDx=0;exitDy=0;entryX=0.604;entryY=1.014;entryDx=0;entryDy=0;entryPerimeter=0;" parent="1" source="G9HL7FKv6nedQ7dIaKoP-79" target="MkebhDBpNGItt_J_HD5r-7" edge="1">
          <mxGeometry width="50" height="50" relative="1" as="geometry">
            <mxPoint x="320" y="1120" as="sourcePoint" />
            <mxPoint x="370" y="1070" as="targetPoint" />
          </mxGeometry>
        </mxCell>
        <mxCell id="mIV1HLxVUp-rzsPTlxXM-29" value="" style="endArrow=classic;html=1;rounded=0;fontColor=#000000;exitX=1;exitY=0;exitDx=0;exitDy=0;entryX=0.609;entryY=1.011;entryDx=0;entryDy=0;entryPerimeter=0;" parent="1" source="G9HL7FKv6nedQ7dIaKoP-79" target="ubBGQjgHWbrzZHi7zzIe-1" edge="1">
          <mxGeometry width="50" height="50" relative="1" as="geometry">
            <mxPoint x="430" y="1020" as="sourcePoint" />
            <mxPoint x="480" y="970" as="targetPoint" />
          </mxGeometry>
        </mxCell>
        <mxCell id="mIV1HLxVUp-rzsPTlxXM-31" value="" style="endArrow=classic;html=1;rounded=0;fontColor=#000000;entryX=1;entryY=0.5;entryDx=0;entryDy=0;exitX=0.412;exitY=-0.002;exitDx=0;exitDy=0;exitPerimeter=0;" parent="1" source="G9HL7FKv6nedQ7dIaKoP-79" target="mIV1HLxVUp-rzsPTlxXM-1" edge="1">
          <mxGeometry width="50" height="50" relative="1" as="geometry">
            <mxPoint x="-470" y="590" as="sourcePoint" />
            <mxPoint x="-420" y="540" as="targetPoint" />
            <Array as="points">
              <mxPoint x="-390" y="480" />
            </Array>
          </mxGeometry>
        </mxCell>
        <mxCell id="mIV1HLxVUp-rzsPTlxXM-32" value="~Rd&amp;amp;~Wr" style="text;html=1;align=center;verticalAlign=middle;resizable=0;points=[];autosize=1;strokeColor=none;fillColor=none;" parent="1" vertex="1">
          <mxGeometry x="-460" y="680" width="70" height="20" as="geometry" />
        </mxCell>
        <mxCell id="mIV1HLxVUp-rzsPTlxXM-33" value="" style="endArrow=classic;html=1;rounded=0;fontColor=#000000;exitX=0;exitY=0.526;exitDx=0;exitDy=0;exitPerimeter=0;entryX=0.931;entryY=0.176;entryDx=0;entryDy=0;entryPerimeter=0;" parent="1" source="ubBGQjgHWbrzZHi7zzIe-1" target="G9HL7FKv6nedQ7dIaKoP-1" edge="1">
          <mxGeometry width="50" height="50" relative="1" as="geometry">
            <mxPoint x="-170" y="530" as="sourcePoint" />
            <mxPoint x="-120" y="480" as="targetPoint" />
          </mxGeometry>
        </mxCell>
        <mxCell id="mIV1HLxVUp-rzsPTlxXM-34" value="~Rd&amp;amp;~Wr" style="text;html=1;align=center;verticalAlign=middle;resizable=0;points=[];autosize=1;strokeColor=none;fillColor=none;" parent="1" vertex="1">
          <mxGeometry x="-91" y="610" width="70" height="20" as="geometry" />
        </mxCell>
        <mxCell id="mIV1HLxVUp-rzsPTlxXM-35" value="" style="endArrow=classic;html=1;rounded=0;fontColor=#000000;entryX=0.994;entryY=0.339;entryDx=0;entryDy=0;exitX=0.002;exitY=0.349;exitDx=0;exitDy=0;exitPerimeter=0;entryPerimeter=0;" parent="1" source="ubBGQjgHWbrzZHi7zzIe-1" target="mIV1HLxVUp-rzsPTlxXM-1" edge="1">
          <mxGeometry width="50" height="50" relative="1" as="geometry">
            <mxPoint x="-670" y="400" as="sourcePoint" />
            <mxPoint x="-620" y="350" as="targetPoint" />
          </mxGeometry>
        </mxCell>
        <mxCell id="mIV1HLxVUp-rzsPTlxXM-36" value="" style="endArrow=classic;html=1;rounded=0;fontColor=#000000;entryX=0;entryY=0;entryDx=0;entryDy=0;exitX=0.5;exitY=0;exitDx=0;exitDy=0;" parent="1" source="ubBGQjgHWbrzZHi7zzIe-1" target="G9HL7FKv6nedQ7dIaKoP-6" edge="1">
          <mxGeometry width="50" height="50" relative="1" as="geometry">
            <mxPoint x="320" y="510" as="sourcePoint" />
            <mxPoint x="180" y="320" as="targetPoint" />
            <Array as="points">
              <mxPoint x="-20" y="270" />
              <mxPoint x="-890" y="300" />
            </Array>
          </mxGeometry>
        </mxCell>
        <mxCell id="mIV1HLxVUp-rzsPTlxXM-39" value="" style="endArrow=classic;html=1;rounded=0;fontColor=#000000;exitX=-0.001;exitY=0.444;exitDx=0;exitDy=0;exitPerimeter=0;entryX=0.612;entryY=0.014;entryDx=0;entryDy=0;entryPerimeter=0;" parent="1" source="ubBGQjgHWbrzZHi7zzIe-1" target="G9HL7FKv6nedQ7dIaKoP-7" edge="1">
          <mxGeometry width="50" height="50" relative="1" as="geometry">
            <mxPoint x="-220" y="610" as="sourcePoint" />
            <mxPoint x="-520" y="800" as="targetPoint" />
            <Array as="points">
              <mxPoint x="-470" y="560" />
            </Array>
          </mxGeometry>
        </mxCell>
        <mxCell id="mIV1HLxVUp-rzsPTlxXM-40" value="~Rd &amp;amp;Wr" style="text;html=1;align=center;verticalAlign=middle;resizable=0;points=[];autosize=1;strokeColor=none;fillColor=none;" parent="1" vertex="1">
          <mxGeometry x="-420" y="827.25" width="60" height="20" as="geometry" />
        </mxCell>
        <mxCell id="mIV1HLxVUp-rzsPTlxXM-41" value="" style="endArrow=classic;html=1;rounded=0;fontColor=#000000;entryX=1;entryY=0.385;entryDx=0;entryDy=0;exitX=0;exitY=1;exitDx=0;exitDy=0;entryPerimeter=0;" parent="1" source="G9HL7FKv6nedQ7dIaKoP-82" target="G9HL7FKv6nedQ7dIaKoP-7" edge="1">
          <mxGeometry width="50" height="50" relative="1" as="geometry">
            <mxPoint x="-420" y="880" as="sourcePoint" />
            <mxPoint x="-370" y="830" as="targetPoint" />
          </mxGeometry>
        </mxCell>
        <mxCell id="mIV1HLxVUp-rzsPTlxXM-42" value="~Rd &amp;amp; Wr" style="text;html=1;align=center;verticalAlign=middle;resizable=0;points=[];autosize=1;strokeColor=none;fillColor=none;" parent="1" vertex="1">
          <mxGeometry x="-110" y="560" width="70" height="20" as="geometry" />
        </mxCell>
        <mxCell id="mIV1HLxVUp-rzsPTlxXM-43" value="Rd &amp;amp; ~Wr" style="text;html=1;align=center;verticalAlign=middle;resizable=0;points=[];autosize=1;strokeColor=none;fillColor=none;" parent="1" vertex="1">
          <mxGeometry x="274" y="470" width="70" height="20" as="geometry" />
        </mxCell>
        <mxCell id="mIV1HLxVUp-rzsPTlxXM-44" value="" style="endArrow=classic;html=1;rounded=0;fontColor=#000000;entryX=0.965;entryY=0.323;entryDx=0;entryDy=0;entryPerimeter=0;" parent="1" target="G9HL7FKv6nedQ7dIaKoP-6" edge="1">
          <mxGeometry width="50" height="50" relative="1" as="geometry">
            <mxPoint x="-380" y="760" as="sourcePoint" />
            <mxPoint x="-700" y="830" as="targetPoint" />
          </mxGeometry>
        </mxCell>
        <mxCell id="mIV1HLxVUp-rzsPTlxXM-45" value="Rd &amp;amp; ~Wr" style="text;html=1;align=center;verticalAlign=middle;resizable=0;points=[];autosize=1;strokeColor=none;fillColor=none;" parent="1" vertex="1">
          <mxGeometry x="-795" y="827.25" width="70" height="20" as="geometry" />
        </mxCell>
        <mxCell id="mIV1HLxVUp-rzsPTlxXM-46" value="" style="endArrow=classic;html=1;rounded=0;fontColor=#000000;exitX=0.218;exitY=0.071;exitDx=0;exitDy=0;exitPerimeter=0;entryX=0.985;entryY=0.594;entryDx=0;entryDy=0;entryPerimeter=0;" parent="1" source="G9HL7FKv6nedQ7dIaKoP-82" target="mIV1HLxVUp-rzsPTlxXM-1" edge="1">
          <mxGeometry width="50" height="50" relative="1" as="geometry">
            <mxPoint x="-580" y="520" as="sourcePoint" />
            <mxPoint x="-530" y="470" as="targetPoint" />
          </mxGeometry>
        </mxCell>
      </root>
    </mxGraphModel>
  </diagram>
</mxfile>
